<?xml version="1.0" encoding="utf-8"?>
<!-- Generator: Adobe Illustrator 16.0.0, SVG Export Plug-In . SVG Version: 6.00 Build 0)  -->
<!DOCTYPE svg PUBLIC "-//W3C//DTD SVG 1.1//EN" "http://www.w3.org/Graphics/SVG/1.1/DTD/svg11.dtd">
<svg version="1.1" id="Layer_1" xmlns="http://www.w3.org/2000/svg" xmlns:xlink="http://www.w3.org/1999/xlink" x="0px" y="0px"
	 width="32px" height="32px" viewBox="0 0 32 32" enable-background="new 0 0 32 32" xml:space="preserve" fill="#9AABB2">
<path id="search" d="M6.25,29.286l7.129-7.129c1.582,0.959,3.434,1.521,5.42,1.521c5.791,0,10.484-4.691,10.484-10.479
	c0-5.792-4.692-10.483-10.481-10.485C13.009,2.716,8.32,7.407,8.32,13.2c0,1.986,0.563,3.84,1.521,5.422l-7.125,7.127L6.25,29.286z
	 M18.8,19.682c-3.579-0.005-6.477-2.904-6.483-6.482c0.006-3.582,2.904-6.477,6.483-6.485c3.581,0.006,6.478,2.903,6.484,6.485
	C25.279,16.777,22.382,19.677,18.8,19.682z"/>
</svg>
